<svg viewBox="0 0 100 100" fill="none" xmlns="http://www.w3.org/2000/svg">
    <path d="M0 6C0 2.68629 2.68629 0 6 0V0V94H0V6Z" fill="white" />
    <path d="M100 94C100 97.3137 97.3137 100 94 100V100L94 6H100L100 94Z" fill="white" />
    <path d="M94 0C97.3137 0 100 2.68629 100 6V6L6 6V0L94 0Z" fill="white" />
    <path d="M6 100C2.68629 100 0 97.3137 0 94V94H94V100H6Z" fill="white" />
    <rect x="6" y="47" width="88" height="6" fill="white" />
    <rect x="47" y="6" width="6" height="88" fill="white" />
    <rect x="14" y="23" width="25" height="6" rx="3" fill="white" />
    <rect x="61" y="65" width="25" height="6" rx="3" fill="white" />
    <rect x="61" y="76" width="25" height="6" rx="3" fill="white" />
    <rect x="61" y="23" width="25" height="6" rx="3" fill="white" />
    <rect x="23.5" y="38.5" width="25" height="6" rx="3" transform="rotate(-90 23.5 38.5)" fill="white" />
    <rect x="15.0399" y="80.2175" width="25" height="6" rx="3" transform="rotate(-45 15.0399 80.2175)" fill="white" />
    <rect x="32.7175" y="84.4602" width="25" height="6" rx="3" transform="rotate(-135 32.7175 84.4602)" fill="white" />
</svg>
