<svg width="100" height="100" viewBox="0 0 100 100" fill="none" xmlns="http://www.w3.org/2000/svg">
    <rect x="69.2079" y="13.7391" width="6" height="22.4729" transform="rotate(-45 69.2079 13.7391)" fill="white"/>
    <rect x="51.3624" y="30.8936" width="6" height="23.9341" transform="rotate(-45 51.3624 30.8936)" fill="white"/>
    <path d="M31.8983 91.1178C30.7268 92.2894 28.8273 92.2894 27.6557 91.1178V91.1178C26.4841 89.9462 26.4841 88.0467 27.6557 86.8752L89.2442 25.2867V25.2867C91.5874 27.6298 91.5874 31.4288 89.2442 33.7719L31.8983 91.1178Z" fill="white"/>
    <rect x="7" y="92" width="25" height="6" rx="3" transform="rotate(-90 7 92)" fill="white"/>
    <rect x="7" y="86" width="25" height="6" rx="3" fill="white"/>
    <path d="M12.122 71.3169C10.9505 72.4885 9.05095 72.4885 7.87938 71.3169V71.3169C6.70781 70.1453 6.70781 68.2458 7.87938 67.0743L65.2146 9.739C67.5578 7.39586 71.3568 7.39585 73.6999 9.739V9.739L12.122 71.3169Z" fill="white"/>
</svg>
