<svg width="100" height="100" viewBox="0 0 100 100" fill="none" xmlns="http://www.w3.org/2000/svg">
    <g clip-path="url(#clip0_415_2)">
    <path d="M0 6H6V46H3C1.34315 46 0 44.6569 0 43L0 6Z" fill="white"/>
    <path d="M40 0L43 0C44.6569 0 46 1.34315 46 3V40H40V0Z" fill="white"/>
    <path d="M6 40H46V43C46 44.6569 44.6569 46 43 46H6V40Z" fill="white"/>
    <path d="M0 3C0 1.34315 1.34315 0 3 0L40 0V6H0L0 3Z" fill="white"/>
    <rect x="51" y="8" width="40" height="6" rx="3" fill="white"/>
    <path d="M52 35C52 33.3431 53.3431 32 55 32H79C80.6569 32 82 33.3431 82 35V35C82 36.6569 80.6569 38 79 38H55C53.3431 38 52 36.6569 52 35V35Z" fill="white"/>
    <path d="M51 23C51 21.3431 52.3431 20 54 20H68C69.6569 20 71 21.3431 71 23V23C71 24.6569 69.6569 26 68 26H54C52.3431 26 51 24.6569 51 23V23Z" fill="white"/>
    <rect x="51" y="62" width="40" height="6" rx="3" fill="white"/>
    <path d="M51 89C51 87.3431 52.3431 86 54 86H68C69.6569 86 71 87.3431 71 89V89C71 90.6569 69.6569 92 68 92H54C52.3431 92 51 90.6569 51 89V89Z" fill="white"/>
    <path d="M51 77C51 75.3431 52.3431 74 54 74H78C79.6569 74 81 75.3431 81 77V77C81 78.6569 79.6569 80 78 80H54C52.3431 80 51 78.6569 51 77V77Z" fill="white"/>
    <path d="M0 60H6V100H3C1.34315 100 0 98.6569 0 97L0 60Z" fill="white"/>
    <path d="M40 54H43C44.6569 54 46 55.3431 46 57V94H40V54Z" fill="white"/>
    <path d="M6 94H46V97C46 98.6569 44.6569 100 43 100H6V94Z" fill="white"/>
    <path d="M0 57C0 55.3431 1.34315 54 3 54H40V60H0L0 57Z" fill="white"/>
    </g>
    <defs>
    <clipPath id="clip0_415_2">
    <rect width="100" height="100" fill="white"/>
    </clipPath>
    </defs>
</svg>
