<svg xmlns="http://www.w3.org/2000/svg" viewBox="0 0 1024 1024">
  <path fill="#fff" d="M835 886H262.8c-24.5 0-49 .1-73.5 0-4.8 0-9.5-.3-14.2-1 4.4.6 8.9 1.2 13.3 1.8-8.5-1.2-16.8-3.5-24.7-6.8 4 1.7 8 3.4 11.9 5-8.2-3.5-15.8-7.9-22.8-13.3 3.4 2.6 6.7 5.2 10.1 7.8-6.9-5.4-13.1-11.6-18.6-18.6 2.6 3.4 5.2 6.7 7.8 10.1-5.4-7.1-9.8-14.7-13.3-22.8 1.7 4 3.4 8 5 11.9-3.3-8-5.5-16.2-6.8-24.7.6 4.4 1.2 8.9 1.8 13.3-1.3-9.5-1-19-1-28.6V264.7c0-25.1-.1-50.3 0-75.4 0-4.8 .3-9.5 1-14.3-.6 4.4-1.2 8.9-1.8 13.3 1.2-8.5 3.5-16.8 6.8-24.7-1.7 4-3.4 8-5 11.9 3.5-8.2 7.9-15.8 13.3-22.8-2.6 3.4-5.2 6.7-7.8 10.1 5.4-6.9 11.6-13.1 18.6-18.6-3.4 2.6-6.7 5.2-10.1 7.8 7.1-5.4 14.7-9.8 22.8-13.3-4 1.7-8 3.4-11.9 5 8-3.3 16.2-5.5 24.7-6.8-4.4 .6-8.9 1.2-13.3 1.8 9.5-1.3 19-1 28.6-1H759.1c25.1 0 50.3-.1 75.4 0 4.8 0 9.5 .3 14.3 1-4.4 -.6-8.9-1.2-13.3-1.8 8.5 1.2 16.8 3.5 24.7 6.8-4-1.7-8-3.4-11.9-5 8.2 3.5 15.8 7.9 22.8 13.3-3.4-2.6-6.7-5.2-10.1-7.8 6.9 5.4 13.1 11.6 18.6 18.6-2.6-3.4-5.2-6.7-7.8-10.1 5.4 7.1 9.8 14.7 13.3 22.8-1.7-4-3.4-8-5-11.9 3.3 8 5.5 16.2 6.8 24.7-.6 -4.4-1.2-8.9-1.8-13.3 1.3 9.5 1 19 1 28.6V759c0 25.1 .1 50.3 0 75.4 0 4.8 -.3 9.5-1 14.3 .6 -4.4 1.2 -8.9 1.8 -13.3 -1.2 8.5 -3.5 16.8 -6.8 24.7 1.7 -4 3.4 -8 5 -11.9 -3.5 8.2 -7.9 15.8 -13.3 22.8 2.6 -3.4 5.2 -6.7 7.8 -10.1 -5.4 6.9 -11.6 13.1 -18.6 18.6 3.4 -2.6 6.7 -5.2 10.1 -7.8 -7.1 5.4 -14.7 9.8 -22.8 13.3 4 -1.7 8 -3.4 11.9 -5 -8 3.3 -16.2 5.5 -24.7 6.8 4.4 -.6 8.9 -1.2 13.3 -1.8 -4.5 .7 -9.1 1 -13.8 1 -12.9 .1 -26.2 5.5 -35.4 14.6 -8.7 8.7 -15.2 22.9 -14.6 35.4 .6 12.9 4.8 26.3 14.6 35.4 9.7 8.9 21.8 14.7 35.4 14.6 15.9 -.1 32.5 -2.4 47.5 -7.8 9.2 -3.3 18.5 -7.2 27 -12 8.8 -5.1 17.1 -11.9 23.8 -17.1 11.9 -9.7 21.9 -22.1 30.1 -35 4.3 -6.7 7.4 -13.9 10.5 -21.3 3.1 -7.4 6 -14.7 7.8 -22.6 3.8 -17.1 4.2 -33.6 4.2 -50.8V190.1c -.1 -53.2 -27.8 -102.6 -73 -130.5 -26 -15.9 -55.8 -21.6 -86 -21.6H186.1c -15.8 .4 -32.4 2.9 -47.2 8.7 -9.1 3.6 -18.4 7.3 -26.8 12.4 -8.2 4.9 -15.7 10.9 -23 17 -11.9 9.9 -22.1 22.8 -30 36 -5.1 8.4 -8.8 17.7 -12.4 26.8 -2.1 5.4 -3.8 11.1 -5 16.8 -2.4 11.9 -3.8 24 -3.8 36.1v631.5c 0 21.3 1.2 42.9 9.2 62.9 3.7 9.1 7.4 18.3 12.6 26.7 5 8.1 11 15.7 17.1 22.9 10.1 11.8 23 21.9 36.3 29.7 23 13.3 49.5 20.3 76 20.4h645.5c12.8 0 26.3 -5.6 35.4 -14.6 8.7 -8.7 15.2 -22.9 14.6 -35.4 -.6 -12.9 -4.8 -26.3 -14.6 -35.4 -9.4 -8.8 -21.5 -14.5 -35 -14.5z" class="color000000 svgShape"/>
  <path fill="#fff" d="M562 721V354.5c0 -16.9 .2 -33.9 0 -50.8v-.7c0 -12.8 -5.6 -26.3 -14.6 -35.4 -8.7 -8.7 -22.9 -15.2 -35.4 -14.6 -12.9 .6 -26.3 4.8 -35.4 14.6 -9 9.8 -14.6 21.8 -14.6 35.4v366.5c0 16.9 -.2 33.9 0 50.8v.7c0 12.8 5.6 26.3 14.6 35.4 8.7 8.7 22.9 15.2 35.4 14.6 12.9 -.6 26.3 -4.8 35.4 -14.6 8.9 -9.8 14.6 -21.9 14.6 -35.4z" class="color000000 svgShape"/>
  <path fill="#fff" d="M721 462H354.5c-16.9 0 -33.9 -.2 -50.8 0h-.7c-12.8 0 -26.3 5.6 -35.4 14.6 -8.7 8.7 -15.2 22.9 -14.6 35.4 .6 12.9 4.8 26.3 14.6 35.4 9.8 9 21.8 14.6 35.4 14.6h366.5c16.9 0 33.9 .2 50.8 0h.7c12.8 0 26.3 -5.6 35.4 -14.6 8.7 -8.7 15.2 -22.9 14.6 -35.4 -.6 -12.9 -4.8 -26.3 -14.6 -35.4 -9.8 -8.9 -21.9 -14.6 -35.4 -14.6z" class="color000000 svgShape"/>
</svg>
