<svg width="100" height="100" viewBox="0 0 100 100" fill="none" xmlns="http://www.w3.org/2000/svg">
    <path d="M94 0C97.3137 0 100 2.68629 100 6L6 6V0L94 0Z" fill="black" />
    <path d="M0 6C0 2.68629 2.68629 0 6 0V94H0V6Z" fill="black" />
    <path d="M6 100C2.68629 100 0 97.3137 0 94H94V100H6Z" fill="black" />
    <path d="M100 94C100 97.3137 97.3137 100 94 100L94 6H100L100 94Z" fill="black" />
    <rect x="47" y="80" width="60" height="6" rx="3" transform="rotate(-90 47 80)" fill="black" />
    <rect x="20" y="47" width="60" height="6" rx="3" fill="black" />
</svg>
